<svg width="98" height="100" viewBox="0 0 98 100" fill="none" xmlns="http://www.w3.org/2000/svg">
<path d="M21.3295 79.3917C21.694 79.7564 22.099 80.1211 22.4634 80.4857C22.8684 80.8504 23.2734 81.1746 23.6379 81.5392C24.0428 81.9039 24.4478 82.2281 24.8528 82.5522L25.4602 83.0385C25.6627 83.2005 25.8652 83.3626 26.0677 83.4842C26.4727 83.7678 26.8776 84.092 27.3231 84.3756C27.7686 84.6592 28.1735 84.9429 28.5785 85.2265C29.024 85.5101 29.4289 85.7532 29.8744 85.9963C30.3199 86.28 30.7653 86.4826 31.1703 86.7257C32.9522 87.6576 34.734 88.5084 36.5158 89.1567C38.3382 89.8455 40.12 90.3722 41.9423 90.8178C43.7646 91.2229 45.5464 91.5065 47.2878 91.709C49.0291 91.871 50.7299 91.9925 52.3902 91.9519C55.7108 91.9111 58.7885 91.5463 61.5826 90.9788C67.1709 89.8034 71.5038 87.8986 74.4599 86.4396C74.8244 86.2775 75.1888 86.0749 75.5128 85.9533C75.8367 85.7912 76.1607 85.6291 76.4441 85.5075C76.7276 85.3859 77.0111 85.2238 77.254 85.1428C77.497 85.0212 77.74 84.8996 77.9424 84.8186C78.7523 84.4538 79.2788 84.3322 79.4407 84.5348C79.6027 84.7374 79.4003 85.1832 78.8334 85.9531C78.6714 86.1557 78.55 86.3584 78.3475 86.561C78.145 86.7636 77.9426 87.0068 77.6996 87.2499C77.4566 87.493 77.2137 87.7362 76.9302 88.0199C76.6468 88.263 76.3228 88.5467 75.9989 88.8304C74.6626 89.965 72.9214 91.2213 70.7347 92.4776C68.548 93.6934 65.9563 94.9092 62.9192 95.8819C59.8821 96.8546 56.4401 97.5842 52.674 97.8681C50.8112 98.0303 48.8269 98.0304 46.8022 97.9494C44.7774 97.828 42.7121 97.585 40.6063 97.2204C38.5005 96.8153 36.3947 96.2481 34.2484 95.5593C32.1021 94.83 29.9963 93.9387 27.931 92.8852C27.4046 92.6016 26.8781 92.3585 26.3921 92.0748C25.8657 91.7912 25.3797 91.4671 24.8533 91.1834C24.3673 90.8593 23.8408 90.5351 23.3549 90.211C22.8689 89.8868 22.383 89.5222 21.897 89.198C21.654 89.0359 21.411 88.8333 21.168 88.6713L20.4391 88.104C19.9531 87.7393 19.4672 87.3747 19.0217 86.9695C18.5762 86.5643 18.0903 86.1591 17.6448 85.7539C17.1993 85.3082 16.7538 84.903 16.3084 84.4572C14.567 82.7149 12.5421 80.4458 10.5576 77.6093C10.3146 77.2446 10.0716 76.8799 9.82865 76.5153C9.58566 76.1506 9.34266 75.7454 9.09967 75.3402C8.85667 74.9349 8.61368 74.5703 8.37068 74.1245C8.12769 73.7193 7.92519 73.2736 7.68219 72.8684C7.5607 72.6658 7.4392 72.4227 7.3177 72.2201C7.1962 72.0174 7.1152 71.7743 6.9937 71.5312C6.7912 71.0855 6.5482 70.6397 6.3457 70.1535C6.14319 69.6672 5.94069 69.2215 5.73819 68.7352C5.61669 68.4921 5.53568 68.249 5.41418 68.0059C5.33318 67.7627 5.21168 67.5196 5.13067 67.2359C3.59163 63.2243 2.498 58.6454 2.13327 53.6612C1.93065 51.1894 1.97101 48.6365 2.17334 46.0025C2.37568 43.4091 2.82098 40.7346 3.50926 38.0601C4.88581 32.7516 7.23425 27.4431 10.5546 22.6613C13.875 17.839 18.1673 13.5434 23.148 10.1798C28.2503 6.81619 33.96 4.34403 39.9127 3.08752C45.8655 1.79048 52.0208 1.66858 57.9332 2.64078C60.8894 3.12689 63.7646 3.89665 66.5183 4.90955C69.2721 5.92245 71.9044 7.21902 74.3342 8.67768C79.2343 11.6355 83.446 15.3633 86.8074 19.4964C90.1687 23.6295 92.6392 28.1678 94.2592 32.6657C95.8793 37.1636 96.7299 41.5804 96.9731 45.6731C97.0542 46.6862 97.0542 47.6992 97.0543 48.6718C97.0139 49.6443 97.0139 50.5763 96.933 51.5083C96.8116 53.3318 96.5687 55.0743 96.2853 56.6952C95.6781 59.8965 94.8278 62.6115 93.9775 64.7187C93.5726 65.7723 93.1272 66.7043 92.7223 67.5148C92.3174 68.2847 91.953 68.9736 91.6291 69.5004C90.9812 70.5135 90.5763 71.0403 90.4953 70.9998C90.3738 70.9593 90.5762 70.3109 90.9811 69.2168C91.1836 68.6495 91.4265 67.9606 91.7099 67.1502C91.9933 66.3397 92.3172 65.3672 92.6007 64.3136C93.208 62.1659 93.8153 59.5319 94.1795 56.4117C94.3414 54.8718 94.4628 53.2104 94.4627 51.4679C94.5032 50.5765 94.4222 49.685 94.4221 48.7935C94.3411 47.8615 94.3005 46.9295 94.179 45.9975C93.7333 42.1884 92.7612 38.0957 91.0602 34.0031C89.3591 29.9105 86.9292 25.8178 83.7298 22.171C80.5305 18.4837 76.5618 15.2016 72.0261 12.6895C69.7583 11.4334 67.369 10.3395 64.8583 9.48864C62.3475 8.63782 59.7558 8.03013 57.0831 7.66557C51.7781 6.93647 46.2707 7.1799 41.0469 8.4769C35.7826 9.73337 30.8422 12.0434 26.5094 15.1233C22.1766 18.2032 18.4917 22.053 15.6977 26.308C12.9443 30.4414 11.0007 35.0611 9.90762 39.6806C9.38131 41.9904 9.01698 44.3002 8.89561 46.5695C8.73376 48.8387 8.77437 51.0269 8.97697 53.1746C9.34166 57.4294 10.3543 61.36 11.6908 64.8043C11.7718 65.0069 11.8528 65.25 11.9338 65.4526C12.0148 65.6552 12.1363 65.8578 12.2173 66.0604C12.3793 66.4656 12.5818 66.8708 12.7438 67.2761C12.9463 67.6813 13.1488 68.046 13.3108 68.4512C13.3918 68.6538 13.5133 68.8158 13.5943 69.0185C13.6753 69.2211 13.7968 69.3831 13.9183 69.5858C14.1208 69.9504 14.3233 70.3151 14.5258 70.6798C14.7283 71.0445 14.9308 71.3687 15.1333 71.6928C15.3358 72.017 15.5383 72.3412 15.7408 72.6653C15.9433 72.9895 16.1863 73.2731 16.3888 73.5973C18.0897 75.988 19.8311 77.8925 21.3295 79.3917Z" fill="#3FB9BE"/>
<path d="M96.6107 75.2948C93.5736 76.1054 90.415 76.7134 85.3935 75.8222C73.3662 73.7157 66.2786 56.8994 49.3515 56.9003C47.9342 56.9004 46.6383 56.9815 45.4235 57.1032C53.1171 47.3774 70.3674 34.612 75.5912 30.8837C76.0771 30.519 76.32 30.0732 76.32 29.4249C76.4009 27.6824 76.6437 24.7243 76.6437 24.1164C76.6436 23.5086 76.3601 22.9008 75.3882 22.9009C54.3306 23.4288 40.8862 23.7537 33.921 24.0783C33.3135 24.1188 32.8681 24.362 32.5847 24.8483C31.2889 27.2391 29.953 35.4247 29.9531 36.0325C29.9531 36.7214 30.4796 37.0455 31.2895 37.0455C32.3828 37.0454 46.1917 34.8565 53.5213 33.6809C42.4665 41.9886 21.5315 62.9397 21.5317 66.1004C21.5318 68.7343 24.7717 73.3942 26.2295 73.232C29.7121 72.8671 36.1913 70.5165 47.773 70.5159C65.7124 70.5149 71.6254 81.1314 86.5277 81.1305C91.7516 81.1303 95.963 78.334 97.3397 76.4699C97.9876 75.6189 97.7851 74.9706 96.6107 75.2948Z" fill="#3FB9BE"/>
</svg>
