<svg width="754" height="567" viewBox="0 0 754 567" fill="none" xmlns="http://www.w3.org/2000/svg">
<path d="M715.048 509.685C679.84 508.989 639.816 475.451 632.619 446.94C646.755 432.636 657.565 415.396 664.284 396.444C671.002 377.493 673.464 357.294 671.493 337.284C658.464 215.861 506.475 169.993 428.675 265.072C418.586 277.556 410.788 291.727 405.64 306.929C370.86 407.304 463.161 509.016 566.484 484.063C588.22 498.757 612.84 508.649 638.702 513.081C664.565 517.513 691.075 516.383 716.466 509.765L715.048 509.685Z" fill="#33F28B"/>
<path d="M672.135 352.744C671.645 388.07 657.482 421.832 632.619 446.941C637.97 468.337 661.834 492.408 688.534 503.667C796.085 395.322 760.61 210.539 619.376 151.405C547.863 120.514 459.816 132.095 399.995 182.617V5H318.931V134.529H2.56659V215.594H286.157L280.459 220.943L8.1316 480.372L2.45947 485.721V566.786H409.252C375.153 546.907 346.275 519.203 325.004 485.962H124.136L137.968 472.589L318.663 299.012C318.663 346.245 315.693 390.454 335.545 434.905C416.689 615.543 627.964 579.704 716.225 509.551C690.858 516.145 664.378 517.264 638.545 512.832C612.712 508.4 588.12 498.52 566.404 483.849C471.32 506.368 383.086 422.923 400.53 326.72C405.294 299.834 418.004 274.99 437.022 255.391C459.346 232.337 489.079 217.879 521.002 214.551C602.468 205.752 673.847 271.919 672.135 352.744Z" fill="#1E1E1E"/>
<path d="M602.736 331.802C599.071 330.957 595.252 331.058 591.637 332.095C588.023 333.132 584.731 335.071 582.072 337.729C579.413 340.388 577.473 343.678 576.436 347.292C575.399 350.905 575.298 354.723 576.142 358.387C577.035 362.228 578.939 365.761 581.655 368.621C584.371 371.481 587.802 373.564 591.594 374.654C595.385 375.745 599.398 375.804 603.219 374.825C607.041 373.845 610.531 371.864 613.33 369.085C616.139 366.297 618.149 362.807 619.151 358.98C620.153 355.152 620.111 351.126 619.029 347.32C617.948 343.514 615.866 340.068 613.001 337.339C610.135 334.609 606.591 332.697 602.736 331.802Z" fill="#1E1E1E"/>
<path d="M488.63 337.659C485.891 334.952 482.496 333.004 478.777 332.006C475.058 331.007 471.143 330.993 467.416 331.964C463.69 332.935 460.28 334.858 457.521 337.545C454.763 340.231 452.751 343.589 451.683 347.287C450.602 351.075 450.553 355.083 451.542 358.895C452.53 362.708 454.52 366.187 457.306 368.972C460.093 371.758 463.573 373.747 467.387 374.736C471.201 375.724 475.21 375.676 478.999 374.594C482.699 373.527 486.057 371.515 488.745 368.758C491.432 366 493.356 362.592 494.328 358.866C495.299 355.141 495.285 351.227 494.286 347.509C493.287 343.791 491.338 340.397 488.63 337.659Z" fill="#1E1E1E"/>
<path d="M540.319 331.802C536.654 330.957 532.836 331.058 529.221 332.095C525.606 333.132 522.314 335.071 519.655 337.729C516.996 340.388 515.057 343.678 514.02 347.292C512.982 350.905 512.881 354.723 513.726 358.387C514.619 362.228 516.521 365.761 519.238 368.621C521.954 371.481 525.385 373.564 529.176 374.654C532.968 375.745 536.981 375.804 540.802 374.825C544.624 373.845 548.114 371.864 550.913 369.085C553.721 366.297 555.731 362.807 556.734 358.98C557.736 355.152 557.694 351.126 556.613 347.32C555.531 343.514 553.45 340.068 550.584 337.339C547.719 334.609 544.174 332.697 540.319 331.802Z" fill="#1E1E1E"/>
</svg>
